<?xml version="1.0"?>
<svg id="Livello_1" xmlns="http://www.w3.org/2000/svg" version="1.1" viewBox="0 0 291.25 63.95">
  
  <defs>
    
  </defs>
  <g>
    <path class="st1" d="M171.58,0h-31.06l11.82,21.26h19.24c5.87,0,10.64,4.77,10.64,10.63s-4.77,10.63-10.64,10.63h-19.53c-5.87,0-10.63,4.76-10.63,10.63s4.76,10.63,10.63,10.63h19.53c17.59,0,31.9-14.3,31.9-31.89S189.17,0,171.58,0Z"></path>
    <path class="st0" d="M161.24,48.03l-23.38-42.52C135.99,2.12,132.44.01,128.57,0c-3.87,0-7.43,2.09-9.31,5.46,0,0-7.52,13.5-14.37,25.81-6.84-12.31-14.32-25.79-14.32-25.79C88.69,2.1,85.14.01,81.28,0c-3.86.01-7.41,2.1-9.28,5.48,0,0-7.49,13.48-14.32,25.79-6.86-12.31-14.37-25.81-14.37-25.81C41.42,2.09,37.86,0,33.99,0c-3.87.01-7.42,2.12-9.29,5.51L1.32,48.03c-2.83,5.15-.96,11.61,4.19,14.44,5.14,2.83,11.61.95,14.43-4.19,0,0,7.38-13.41,14.13-25.69,6.85,12.3,14.33,25.73,14.33,25.73,1.88,3.38,5.44,5.47,9.3,5.46,3.86,0,7.41-2.09,9.28-5.47,0,0,7.47-13.46,14.3-25.75,6.83,12.29,14.3,25.75,14.3,25.75,1.87,3.38,5.43,5.47,9.28,5.47,3.86.01,7.42-2.08,9.3-5.46,0,0,7.48-13.43,14.33-25.73,6.76,12.28,14.13,25.69,14.13,25.69,2.83,5.14,9.29,7.02,14.43,4.19,5.15-2.83,7.02-9.29,4.19-14.44Z"></path>
  </g>
  <g>
    <path class="st0" d="M227.77,1.4v14.24c0,.06.01.13.01.19l-10.05-13.6v.9s10.08,13.61,10.08,13.61c.06.08.14.13.24.13h.25V1.4h-.53ZM217.21,1.54c-.04-.06-.07-.09-.11-.11-.03-.02-.08-.03-.14-.03h-.27v15.47h.52V1.54Z"></path>
    <path class="st0" d="M254.09,2.27l-4.54,13.06c-.03.12-.07.24-.1.37-.03.13-.07.27-.1.41-.05-.28-.12-.54-.18-.78l-4.27-13.74c-.04-.13-.12-.19-.24-.19h-.5l4.9,15.47h.53l4.76-13.82-.26-.78Z"></path>
    <path class="st0" d="M231.17,24.86c-.06,0-.11.01-.15.02-.04.02-.07.06-.11.12l-6.51,11.38c-.04.08-.07.15-.1.22-.03.07-.06.14-.09.2l-.19-.41-6.28-10.66v1.02l6.14,10.46c.07.12.16.19.27.19h.11c.11,0,.2-.07.27-.19l6.49-11.37s-.01.11-.01.17v14.31h.53v-15.46h-.37ZM217.05,24.86h-.36v15.46h.52v-15.43s-.01,0-.01,0c-.04-.01-.09-.02-.15-.02Z"></path>
    <path class="st0" d="M262.05,32.59c0,1.21-.18,2.29-.53,3.25-.35.96-.85,1.77-1.49,2.43-.64.66-1.4,1.17-2.29,1.52-.89.35-1.87.53-2.94.53h-5.58v-15.47h5.58c1.07,0,2.05.18,2.94.53.89.35,1.65.86,2.29,1.52s1.13,1.47,1.49,2.43c.35.96.53,2.04.53,3.25ZM261.41,32.59c0-1.15-.16-2.18-.48-3.08-.32-.9-.77-1.66-1.35-2.27-.58-.62-1.28-1.08-2.09-1.41-.81-.32-1.7-.48-2.68-.48h-4.97v14.48h4.97c.97,0,1.87-.16,2.68-.48.81-.32,1.51-.79,2.09-1.41s1.03-1.37,1.35-2.27.48-1.92.48-3.07Z"></path>
    <path class="st0" d="M282.79,40.32h-.47c-.11,0-.19-.06-.24-.19l-2.01-4.9h-7.94l-2.01,4.9c-.04.12-.12.19-.25.19h-.45l6.4-15.47h.58l6.4,15.47ZM272.31,34.78h7.55l-3.54-8.61c-.04-.1-.08-.21-.12-.31s-.08-.22-.12-.34c-.04.12-.08.24-.12.34-.04.1-.08.21-.12.31l-3.54,8.61Z"></path>
    <path class="st0" d="M229.5,56.04c0,1.21-.18,2.29-.53,3.25-.35.96-.85,1.77-1.49,2.43-.64.66-1.4,1.17-2.29,1.52-.89.35-1.87.53-2.94.53h-5.58v-15.47h5.58c1.07,0,2.05.18,2.94.53.89.35,1.65.86,2.29,1.52s1.13,1.47,1.49,2.43c.35.96.53,2.04.53,3.25ZM228.86,56.04c0-1.15-.16-2.18-.48-3.08-.32-.9-.77-1.66-1.35-2.27-.58-.62-1.28-1.08-2.09-1.41-.81-.32-1.7-.48-2.68-.48h-4.97v14.48h4.97c.97,0,1.87-.16,2.68-.48.81-.32,1.51-.79,2.09-1.41s1.03-1.37,1.35-2.27.48-1.92.48-3.07Z"></path>
    <path class="st0" d="M253.49,49.91c-.04.07-.11.11-.19.11s-.19-.07-.34-.21c-.14-.14-.34-.3-.6-.48-.26-.18-.59-.34-.99-.48-.4-.14-.9-.21-1.5-.21s-1.14.09-1.6.27c-.47.18-.86.42-1.17.73s-.55.66-.71,1.06-.24.82-.24,1.26c0,.56.11,1.04.34,1.41s.53.7.9.95c.37.26.8.47,1.27.65s.96.35,1.46.51c.5.17.99.34,1.46.53.47.19.9.42,1.27.71s.67.64.9,1.06c.23.42.34.94.34,1.57s-.11,1.24-.33,1.8c-.22.56-.53,1.05-.95,1.46-.42.41-.92.74-1.52.98s-1.28.36-2.04.36c-.52,0-.99-.05-1.41-.14-.42-.09-.81-.22-1.17-.4-.36-.17-.68-.38-.98-.63-.3-.25-.58-.53-.85-.85l.14-.22s.07-.06.09-.08c.03-.02.06-.03.12-.03s.12.05.21.14.21.21.36.34.32.28.53.44c.21.16.45.3.73.44s.61.25.98.34.79.14,1.26.14c.67,0,1.26-.1,1.79-.31s.97-.5,1.34-.86c.36-.36.64-.79.83-1.27.19-.48.29-1,.29-1.55,0-.59-.11-1.07-.34-1.45-.23-.38-.53-.7-.9-.96-.37-.26-.79-.47-1.27-.64-.48-.17-.96-.34-1.46-.5-.5-.16-.98-.33-1.46-.52-.48-.19-.9-.42-1.27-.71-.37-.29-.67-.65-.9-1.08-.23-.43-.34-.97-.34-1.61,0-.51.09-.99.29-1.45.19-.46.47-.87.83-1.23.36-.36.81-.64,1.34-.85.53-.21,1.14-.32,1.83-.32.78,0,1.46.12,2.06.37.6.25,1.16.64,1.68,1.17l-.13.24Z"></path>
    <path class="st0" d="M273.17,63.49c-.88.3-1.87.46-2.98.46-1.21,0-2.3-.18-3.27-.55-.97-.37-1.79-.9-2.47-1.58-.68-.69-1.2-1.52-1.56-2.49-.36-.97-.54-2.07-.54-3.28s.18-2.3.53-3.27c.36-.97.87-1.8,1.54-2.49.67-.69,1.47-1.22,2.42-1.59.95-.37,2.01-.56,3.19-.56.58,0,1.11.04,1.6.11.49.07.94.19,1.36.34s.81.34,1.18.57.73.49,1.07.79l-.15.23c-.06.09-.14.12-.25.09-.07-.02-.21-.12-.4-.29-.19-.17-.48-.35-.85-.54s-.85-.37-1.44-.53-1.29-.24-2.13-.24c-1.08,0-2.05.17-2.92.51-.87.34-1.61.83-2.22,1.46-.61.64-1.08,1.41-1.41,2.33s-.5,1.95-.5,3.1.17,2.17.5,3.09.8,1.7,1.42,2.34c.62.64,1.38,1.13,2.27,1.47.89.34,1.9.51,3.02.51.51,0,.98-.03,1.41-.1.44-.07.85-.16,1.24-.29.39-.12.77-.27,1.13-.45.37-.18.74-.38,1.11-.61v-4.55h-3.27c-.05,0-.1-.02-.13-.06-.04-.04-.06-.08-.06-.12v-.31h4.02v5.28c-.76.52-1.58.93-2.46,1.24Z"></path>
    <g>
      <path class="st0" d="M233.81,9.28v7.07h8.55l-.02.52h-9.13V1.4h9.13v.52h-8.53v6.85"></path>
      <rect class="st0" x="236.21" y="8.77" width="4.79" height=".51"></rect>
    </g>
    <g>
      <path class="st0" d="M237.05,32.73v7.07h8.55l-.02.52h-9.13v-15.47h9.13v.52h-8.53v6.85"></path>
      <rect class="st0" x="239.44" y="32.22" width="4.79" height=".51"></rect>
    </g>
    <g>
      <path class="st0" d="M234,56.18v7.07h8.55l-.02.52h-9.13v-15.47h9.13v.52h-8.53v6.85"></path>
      <rect class="st0" x="236.39" y="55.68" width="4.79" height=".51"></rect>
    </g>
    <rect class="st0" x="265.94" y="24.86" width=".61" height="15.46"></rect>
    <path class="st0" d="M254.37,1.49c.05-.06.12-.09.21-.09h.14c.13,0,.21.06.25.19l4.76,13.74c.07.23.14.49.2.78.03-.15.05-.28.08-.41.03-.13.07-.25.1-.37l4.27-13.74c.04-.13.13-.19.26-.19h.46l-4.9,15.47h-.54l-.92-2.67-3.78-11.02-.59-1.69Z"></path>
    <rect class="st0" x="257.88" y="48.45" width=".61" height="15.46"></rect>
    <path class="st0" d="M290.72,48.31v14.24c0,.06.01.13.01.19l-10.05-13.6v.9s10.08,13.61,10.08,13.61c.06.08.14.13.24.13h.25v-15.47h-.53ZM280.16,48.45c-.04-.06-.07-.09-.11-.11-.03-.02-.08-.03-.14-.03h-.27v15.47h.52v-15.33Z"></path>
  </g>
</svg>